<?xml version="1.0" encoding="utf-8"?>
<!-- Generator: Adobe Illustrator 19.1.0, SVG Export Plug-In . SVG Version: 6.00 Build 0)  -->
<svg version="1.1" id="Layer_1" xmlns="http://www.w3.org/2000/svg" xmlns:xlink="http://www.w3.org/1999/xlink" x="0px" y="0px"
	 viewBox="0 0 450 270" style="enable-background:new 0 0 450 270;" xml:space="preserve">
<style type="text/css">
	.st0{fill:#FFFFFF;}
</style>
<path class="st0" d="M172.3,18.1c39.1,1.3,68.7,1.5,97.6,8.1c8.9,2,17.7,6,25.8,10.3c3.6,1.9,5.9,6.7,8.3,10.5
	c6.3,10,12.3,20.2,18.7,30.2c1.1,1.7,3.2,2.7,4.4,4.3c1,1.3,2.1,2.9,2.2,4.4c0.5,6.9,1.2,8,8,9.1c21,3.4,42.1,6.5,63.1,10
	c7.2,1.2,14.5,2.6,21.4,5c5.5,1.9,11.1,4.6,15.6,8.3c5.2,4.2,5.3,11,4.2,17.2c-0.7,3.8-2.7,7.5-4.2,11.2c-1.1,2.6-2.8,5.1-3.2,7.7
	c-0.3,1.8,0.5,4.5,1.7,5.9c3.4,3.9,3.4,7.4,0.1,11.4c-1.2,1.4-1.5,3.9-1.5,6c0,3.4,0.9,6.9,0.7,10.3c-0.2,5.7-2.9,10.3-8.9,11
	c-9.1,1.1-12.9,8.5-18.4,14c-4,4.1-8.6,8-13.6,10.6c-37.7,19.1-78.6,28.1-119.5,36.6c-9.4,1.9-19.6,1.1-29.3,0.6
	c-11-0.6-20.4-5.6-28.5-13.2c-18.2-16.9-39.5-28.4-63.3-34.9c-13.9-3.8-28.2-6.7-42.4-9.3c-16.1-2.9-32.2-0.4-48.3,1
	c-8.6,0.8-17.4,1-25.9-0.4c-11.4-1.8-18.7-9.7-22.5-20.4c-3.5-9.8-4.4-19.7-0.4-29.8c0.8-2.1-0.7-4.9-0.6-7.4
	c0.5-9.8,0.9-19.6,1.9-29.3c0.2-2.4,2.6-4.6,4-6.9c1.5-2.6,2.9-5.2,4.6-7.7c3.2-4.4,6.8-8.6,9.9-13c2.7-3.9,5.3-8,7.3-12.4
	C46.4,65.9,51.8,54.8,56,43.2c2.8-7.6,8-12,15-13.8c11.7-3,23.6-5.9,35.6-7C131.6,20.1,156.8,19,172.3,18.1z"/>
</svg>
